<svg width="25" height="36" viewBox="0 0 25 36" fill="none" xmlns="http://www.w3.org/2000/svg">
<path d="M0.404297 9.57422L3.4043 32.5742C3.4043 34.2312 7.4333 35.5742 12.4043 35.5742C17.3753 35.5742 21.4043 34.2312 21.4043 32.5742L24.4043 9.57422H0.404297Z" fill="#8899A6"/>
<path d="M1.4043 9.57422L4.4043 32.2182C4.4043 33.4612 7.9863 34.4682 12.4043 34.4682C16.8223 34.4682 20.4043 33.4612 20.4043 32.2182L23.4043 9.57422H1.4043Z" fill="#D3A471"/>
<path d="M22.1603 19.1122L23.4043 9.57422H1.4043L2.6483 19.1122H22.1603Z" fill="#CCD6DD"/>
<path d="M20.3863 19.1122L21.4043 9.57422H3.4043L4.4223 19.1122H20.3863Z" fill="#E1E8ED"/>
<path d="M12.4046 21.3843C17.7971 21.3843 22.1686 20.3299 22.1686 19.0293C22.1686 17.7287 17.7971 16.6743 12.4046 16.6743C7.01212 16.6743 2.64062 17.7287 2.64062 19.0293C2.64062 20.3299 7.01212 21.3843 12.4046 21.3843Z" fill="#ECD2A7"/>
<path d="M16.2405 18.7183L17.8675 0.651348L14.8795 0.381348L13.2285 18.7183H16.2405Z" fill="#AA8DD8"/>
<path d="M0.100414 9.57712C-0.0785857 10.6271 -0.0615856 11.9401 0.513414 12.1041C0.973414 12.2361 1.61741 12.0141 2.15241 12.2811C2.68741 12.5481 3.11541 13.2461 3.65841 13.4321C4.69841 13.7881 5.33641 13.1331 5.96141 13.2111C7.14941 13.3591 7.68241 14.4951 8.66341 14.5841C9.64341 14.6731 10.4444 13.8461 11.3644 13.8751C12.3484 13.9071 12.3004 14.6421 13.8444 14.6721C15.3604 14.7011 15.6104 13.7131 16.5014 13.6531C17.3924 13.5941 17.9724 14.2001 18.8044 14.0521C19.6364 13.9031 19.9814 13.0351 20.6644 12.8561C21.3474 12.6781 21.7094 13.1821 22.3034 13.0331C22.8974 12.8851 23.2104 11.8631 23.5674 11.5951C23.9234 11.3281 25.1384 12.8551 24.8444 9.93212C24.3084 4.60412 5.71441 9.36912 3.96241 9.25112C2.20941 9.13212 0.471414 7.40612 0.100414 9.57712Z" fill="#55ACEE"/>
<path d="M12.4047 13.3852C19.2254 13.3852 24.7547 11.6838 24.7547 9.58516C24.7547 7.48647 19.2254 5.78516 12.4047 5.78516C5.58397 5.78516 0.0546875 7.48647 0.0546875 9.58516C0.0546875 11.6838 5.58397 13.3852 12.4047 13.3852Z" fill="#88C9F9"/>
<path d="M17.8675 0.651324L14.8795 0.382324L14.0265 9.85632C14.0255 9.86332 14.0205 9.86932 14.0205 9.87532C14.0205 10.1513 14.6925 10.3753 15.5205 10.3753C16.3485 10.3753 17.0205 10.1513 17.0205 9.87532L17.0375 9.87432L17.8675 0.651324Z" fill="#9266CC"/>
<path d="M17.8676 0.651252C17.8426 0.926252 17.1536 1.08925 16.3286 1.01425C15.5036 0.940252 14.8546 0.656252 14.8796 0.381252C14.9046 0.106252 15.5936 -0.0567476 16.4186 0.0182524C17.2436 0.0932524 17.8926 0.376252 17.8676 0.651252Z" fill="#553788"/>
<path d="M14.7188 19.2642C15.5472 19.2642 16.2188 19.0403 16.2188 18.7642C16.2188 18.488 15.5472 18.2642 14.7188 18.2642C13.8903 18.2642 13.2188 18.488 13.2188 18.7642C13.2188 19.0403 13.8903 19.2642 14.7188 19.2642Z" fill="#AA8DD8"/>
<path d="M5.69873 29.1283C5.37173 29.4553 4.78773 29.4033 4.39573 29.0113C4.00373 28.6193 3.95073 28.0353 4.27873 27.7083C4.60573 27.3813 5.18973 27.4333 5.58173 27.8253C5.97373 28.2173 6.02573 28.8003 5.69873 29.1283ZM8.63673 33.4763C8.54773 33.8273 8.13673 34.0253 7.71973 33.9203C7.30273 33.8143 7.03573 33.4443 7.12473 33.0933C7.21373 32.7423 7.62473 32.5433 8.04173 32.6493C8.45973 32.7553 8.72573 33.1253 8.63673 33.4763ZM12.1877 26.8853C12.0937 27.2553 11.6797 27.4683 11.2617 27.3633C10.8447 27.2573 10.5817 26.8723 10.6757 26.5023C10.7697 26.1323 11.1837 25.9193 11.6017 26.0243C12.0187 26.1303 12.2817 26.5163 12.1877 26.8853Z" fill="#292F33"/>
<path d="M11.6208 34.2812C12.2123 34.2812 12.6918 33.876 12.6918 33.3762C12.6918 32.8764 12.2123 32.4712 11.6208 32.4712C11.0293 32.4712 10.5498 32.8764 10.5498 33.3762C10.5498 33.876 11.0293 34.2812 11.6208 34.2812Z" fill="#292F33"/>
<path d="M19.5519 26.1563C19.6539 26.6063 19.3459 27.0603 18.8639 27.1693C18.3819 27.2793 17.9079 27.0033 17.8049 26.5533C17.7029 26.1033 18.0109 25.6503 18.4929 25.5403C18.9749 25.4303 19.4489 25.7063 19.5519 26.1563ZM16.5589 30.6533C16.3749 31.2143 15.8089 31.5323 15.2939 31.3633C14.7799 31.1943 14.5119 30.6033 14.6959 30.0413C14.8799 29.4793 15.4459 29.1623 15.9609 29.3313C16.4749 29.5003 16.7429 30.0913 16.5589 30.6533ZM11.4329 30.1743C11.5989 30.7053 11.3189 31.2653 10.8069 31.4253C10.2949 31.5853 9.74593 31.2843 9.57993 30.7533C9.41393 30.2223 9.69393 29.6623 10.2059 29.5023C10.7169 29.3423 11.2669 29.6433 11.4329 30.1743ZM13.8139 29.8823C13.3589 30.1203 12.8039 29.9583 12.5749 29.5213C12.3459 29.0833 12.5289 28.5353 12.9849 28.2973C13.4399 28.0593 13.9949 28.2203 14.2239 28.6583C14.4529 29.0963 14.2689 29.6443 13.8139 29.8823ZM15.5129 32.4903C15.5949 32.9913 15.1789 33.4763 14.5839 33.5733C13.9889 33.6703 13.4399 33.3433 13.3589 32.8423C13.2769 32.3413 13.6929 31.8563 14.2879 31.7593C14.8829 31.6623 15.4309 31.9893 15.5129 32.4903ZM8.75093 28.6053C8.39993 28.8943 7.80493 28.7503 7.42193 28.2843C7.03893 27.8183 7.01393 27.2073 7.36493 26.9183C7.71593 26.6293 8.31093 26.7733 8.69393 27.2383C9.07593 27.7053 9.10193 28.3173 8.75093 28.6053ZM18.2079 32.2923C18.4589 32.6863 18.2739 33.2533 17.7959 33.5583C17.3169 33.8633 16.7259 33.7903 16.4749 33.3953C16.2239 33.0013 16.4089 32.4343 16.8869 32.1293C17.3649 31.8253 17.9569 31.8973 18.2079 32.2923ZM19.9859 31.4783C20.2899 31.6863 20.3059 32.1923 20.0219 32.6083C19.7379 33.0253 19.2609 33.1943 18.9559 32.9863C18.6519 32.7783 18.6359 32.2723 18.9199 31.8563C19.2049 31.4403 19.6819 31.2703 19.9859 31.4783ZM4.13193 25.0083C4.40993 24.9933 4.65393 25.3433 4.67893 25.7913C4.70293 26.2393 4.49793 26.6143 4.22093 26.6293C3.94293 26.6443 3.69893 26.2943 3.67393 25.8463C3.64893 25.3983 3.85493 25.0233 4.13193 25.0083ZM18.2489 28.4743C18.4389 28.8003 18.2929 29.2383 17.9229 29.4543C17.5529 29.6703 17.0989 29.5813 16.9089 29.2553C16.7189 28.9293 16.8649 28.4913 17.2349 28.2753C17.6049 28.0593 18.0589 28.1483 18.2489 28.4743ZM12.9579 30.9423C13.2279 31.1263 13.2769 31.5233 13.0679 31.8293C12.8589 32.1353 12.4719 32.2333 12.2019 32.0493C11.9319 31.8653 11.8829 31.4683 12.0919 31.1623C12.3009 30.8573 12.6889 30.7583 12.9579 30.9423ZM20.2819 28.6363C20.5769 28.7143 20.7229 29.1293 20.6089 29.5643C20.4939 29.9993 20.1629 30.2893 19.8679 30.2113C19.5729 30.1333 19.4269 29.7183 19.5409 29.2833C19.6559 28.8483 19.9869 28.5583 20.2819 28.6363ZM20.4039 26.7043C20.6349 26.7653 20.7449 27.1093 20.6489 27.4733C20.5529 27.8373 20.2879 28.0833 20.0569 28.0223C19.8259 27.9613 19.7159 27.6173 19.8119 27.2533C19.9079 26.8893 20.1729 26.6443 20.4039 26.7043ZM19.1319 30.1003C19.4319 30.3743 19.3859 30.9123 19.0299 31.3033C18.6729 31.6943 18.1409 31.7893 17.8409 31.5153C17.5409 31.2413 17.5869 30.7033 17.9429 30.3123C18.2999 29.9213 18.8319 29.8263 19.1319 30.1003ZM7.67593 30.7863C7.43393 31.1423 6.87493 31.1853 6.42693 30.8813C5.97893 30.5773 5.81193 30.0423 6.05393 29.6853C6.29593 29.3283 6.85493 29.2863 7.30293 29.5903C7.75093 29.8943 7.91793 30.4303 7.67593 30.7863ZM16.6609 27.2863C16.6949 27.7433 16.2859 28.1463 15.7459 28.1873C15.2059 28.2283 14.7409 27.8903 14.7059 27.4343C14.6719 26.9773 15.0809 26.5743 15.6209 26.5333C16.1609 26.4923 16.6259 26.8293 16.6609 27.2863ZM9.57293 32.3063C9.30593 32.6443 8.74493 32.6463 8.31993 32.3103C7.89493 31.9753 7.76693 31.4293 8.03393 31.0913C8.30093 30.7533 8.86193 30.7513 9.28593 31.0873C9.71093 31.4223 9.83993 31.9683 9.57293 32.3063ZM6.19093 31.7133C6.53193 32.1643 6.52293 32.7473 6.16893 33.0143C5.81593 33.2813 5.25293 33.1323 4.91093 32.6803C4.56893 32.2283 4.57893 31.6463 4.93293 31.3793C5.28593 31.1123 5.84893 31.2613 6.19093 31.7133Z" fill="#292F33"/>
</svg>
